<svg width="103" height="54" viewBox="0 0 103 54" fill="none" xmlns="http://www.w3.org/2000/svg">
  <ellipse cx="10.5841" cy="2.89607" rx="1.89337" ry="1.89607" fill="#9EC3D2" fill-opacity="0.35"/>
  <ellipse cx="27.9642" cy="2.89607" rx="1.89337" ry="1.89607" fill="#9EC3D2" fill-opacity="0.35"/>
  <ellipse cx="19.2739" cy="2.89607" rx="1.89337" ry="1.89607" fill="#9EC3D2" fill-opacity="0.35"/>
  <ellipse cx="1.89337" cy="2.89607" rx="1.89337" ry="1.89607" fill="#9EC3D2" fill-opacity="0.35"/>
  <ellipse cx="10.5841" cy="19.9605" rx="1.89337" ry="1.89607" fill="#9EC3D2" fill-opacity="0.35"/>
  <ellipse cx="19.2739" cy="19.9605" rx="1.89337" ry="1.89607" fill="#9EC3D2" fill-opacity="0.35"/>
  <ellipse cx="1.89337" cy="19.9605" rx="1.89337" ry="1.89607" fill="#9EC3D2" fill-opacity="0.35"/>
  <ellipse cx="10.5841" cy="28.493" rx="1.89337" ry="1.89607" fill="#9EC3D2" fill-opacity="0.35"/>
  <ellipse cx="1.89337" cy="28.493" rx="1.89337" ry="1.89607" fill="#9EC3D2" fill-opacity="0.35"/>
  <ellipse cx="10.5841" cy="11.4283" rx="1.89337" ry="1.89607" fill="#9EC3D2" fill-opacity="0.35"/>
  <ellipse cx="19.2739" cy="11.4283" rx="1.89337" ry="1.89607" fill="#9EC3D2" fill-opacity="0.35"/>
  <ellipse cx="1.89337" cy="11.4283" rx="1.89337" ry="1.89607" fill="#9EC3D2" fill-opacity="0.35"/>
  <ellipse cx="1.89337" cy="37.0252" rx="1.89337" ry="1.89607" fill="#9EC3D2" fill-opacity="0.35"/>
  <ellipse cx="1.89337" cy="1.89607" rx="1.89337" ry="1.89607" transform="matrix(0 -1 -1 0 94.2941 44.5569)" fill="#9EC3D2" fill-opacity="0.35"/>
  <ellipse cx="1.89337" cy="1.89607" rx="1.89337" ry="1.89607" transform="matrix(0 -1 -1 0 94.2941 35.8669)" fill="#9EC3D2" fill-opacity="0.35"/>
  <ellipse cx="1.89337" cy="1.89607" rx="1.89337" ry="1.89607" transform="matrix(0 -1 -1 0 94.2941 53.2476)" fill="#9EC3D2" fill-opacity="0.35"/>
  <ellipse cx="1.89337" cy="1.89607" rx="1.89337" ry="1.89607" transform="matrix(0 -1 -1 0 102.31 44.5569)" fill="#9EC3D2" fill-opacity="0.35"/>
  <ellipse cx="1.89337" cy="1.89607" rx="1.89337" ry="1.89607" transform="matrix(0 -1 -1 0 102.31 35.8669)" fill="#9EC3D2" fill-opacity="0.35"/>
  <ellipse cx="1.89337" cy="1.89607" rx="1.89337" ry="1.89607" transform="matrix(0 -1 -1 0 102.31 53.2476)" fill="#9EC3D2" fill-opacity="0.35"/>
  <ellipse cx="1.89337" cy="1.89607" rx="1.89337" ry="1.89607" transform="matrix(0 -1 -1 0 85.7614 44.5569)" fill="#9EC3D2" fill-opacity="0.35"/>
  <ellipse cx="1.89337" cy="1.89607" rx="1.89337" ry="1.89607" transform="matrix(0 -1 -1 0 85.7614 53.2476)" fill="#9EC3D2" fill-opacity="0.35"/>
  <ellipse cx="1.89337" cy="1.89607" rx="1.89337" ry="1.89607" transform="matrix(0 -1 -1 0 76.7434 53.2476)" fill="#9EC3D2" fill-opacity="0.35"/>
  <path d="M13.0832 19.233C12.6495 17.0669 14.4793 15.2583 16.6884 15.2583C20.2655 15.2583 25.9149 15.2583 32.2718 15.2583C38.6288 15.2583 44.2782 15.2583 47.8552 15.2583C50.0644 15.2583 51.8941 17.0669 51.4604 19.233C49.6454 28.2985 41.7441 35.1216 32.2718 35.1216C22.7995 35.1216 14.8982 28.2985 13.0832 19.233Z" fill="#9EC3D2" fill-opacity="0.5"/>
  <path d="M53.069 37.359C52.6353 35.1928 54.4651 33.3843 56.6742 33.3843C60.2513 33.3843 65.9007 33.3843 72.2577 33.3843C78.6146 33.3843 84.264 33.3843 87.8411 33.3843C90.0502 33.3843 91.88 35.1928 91.4463 37.359C89.6313 46.4245 81.7299 53.2476 72.2576 53.2476C62.7854 53.2476 54.884 46.4245 53.069 37.359Z" fill="#9EC3D2" fill-opacity="0.5"/>
  <circle cx="52.2446" cy="23.2803" r="22.2803" stroke="#9FC4D2" stroke-width="2" stroke-linecap="round" stroke-linejoin="round" stroke-dasharray="4 4"/>
  <circle cx="72.2578" cy="34" r="7" fill="#9FC4D2"/>
  <circle cx="32.272" cy="15" r="7" fill="#9FC4D2"/>
  </svg>
  